<svg xmlns="http://www.w3.org/2000/svg" viewBox="0 0 512 640" x="0px" y="0px"><g><path d="M260.52,329.539a24,24,0,0,0,33.941,33.941l90.51-90.51a24,24,0,0,0,0-33.941l-90.51-90.509a24,24,0,0,0-33.941,0h0a24,24,0,0,0,0,33.941L310.059,232H48a24,24,0,0,0-24,24h0a24,24,0,0,0,24,24H310.059Z"/><path d="M448,24H224a40,40,0,0,0-40,40V96a24,24,0,0,0,48,0V72H440V440H232V416a24,24,0,0,0-48,0v32a40,40,0,0,0,40,40H448a40,40,0,0,0,40-40V64A40,40,0,0,0,448,24Z"/></g><text x="0" y="527" fill="#000000" font-size="5px" font-weight="bold" font-family="'Helvetica Neue', Helvetica, Arial-Unicode, Arial, Sans-serif">Created by Mavadee</text><text x="0" y="532" fill="#000000" font-size="5px" font-weight="bold" font-family="'Helvetica Neue', Helvetica, Arial-Unicode, Arial, Sans-serif">from the Noun Project</text></svg>